<?xml version="1.0" encoding="utf-8"?>
<!-- Generator: Adobe Illustrator 14.0.0, SVG Export Plug-In . SVG Version: 6.00 Build 43363)  -->
<!DOCTYPE svg PUBLIC "-//W3C//DTD SVG 1.1//EN" "http://www.w3.org/Graphics/SVG/1.1/DTD/svg11.dtd">
<svg version="1.1" id="Layer_1" xmlns="http://www.w3.org/2000/svg" xmlns:xlink="http://www.w3.org/1999/xlink" x="0px" y="0px"
	 width="595.275px" height="841.89px" viewBox="0 0 595.275 841.89" enable-background="new 0 0 595.275 841.89"
	 xml:space="preserve">
<path fill="#BF3734" d="M225.042,280.881c0.488-1.743-1.58-3.372-2.583-4.605c-0.912-1.119-2.26-2.398-2.585-3.864
	c-0.631-2.847,0.775-6.413,1.146-9.237c0.564-4.289,1.083-8.584,1.638-12.875c0.254-1.972,0.345-4.079,0.744-6.016
	c0.342-1.656,0.775-1.767,1.673-0.27c0.589,0.981,0.955,1.965,1.418,3.02c0.842,1.919,2.06,4.296,2.653,5.878
	c0.827-1.268-0.796-3.56-1.401-4.78c-1.537-3.093-3.287-6.523-3.192-10.071c0.102-3.819,1.453-7.839,2.118-11.605
	c0.497-2.814,1.616-5.384,1.892-8.234c0.261-2.682,1.254-5.494,2.131-8.073c1.137-3.342,2.387-6.65,3.804-9.886
	c0.659-1.5,1.647-2.837,2.215-4.378c0.567-1.535,0.692-3.75,2.174-4.755c0.271,3.523,0.475,7.207,1.303,10.622
	c1.591-0.927,0.067-4.716-0.039-6.384c-0.37-5.82,2.823-9.722,6.95-13.376c4.646-4.117,10.072-7.328,15.839-9.602
	c4.137-1.634,8.292-3.076,12.707-3.795c5.268-0.856,10.467-1.625,15.781-0.628c3.542,0.664,6.108,1.437,8.944,3.622
	c2.85,2.199,5.152,4.993,7.605,7.598c2.562,2.719,5.021,5.515,7.232,8.52c1.429,1.938,4.453,4.746,4.454,7.333
	c0.001,1.457-0.981,3.161-1.122,4.703c-0.158,1.727-0.07,3.489,0.245,5.195c0.741,4.043,2.473,7.825,4.068,11.583
	c0.975,2.295,1.41,2.517,3.882,2.702c1.989,0.148,3.795,0.065,5.695-0.706c0.671-0.272,5.946-3.607,5.041-4.599
	c-2.123-2.324-6.477-13.547-2.684-15.657c-0.119,0.068,1.139,2.735,1.257,2.973c3.57-0.861,9.044-7.422,7.453-11.265
	c-1.219-2.946-4.068-3.971-6.849-4.567c0.459,0.098,1.681-4.026,1.972-4.599c3.796-7.441,13.682-13.373,21.882-14.378
	c11.962-1.465,22.988,4.76,31.041,13.145c5.854,6.094,9.604,13.535,11.985,21.582c1.105,3.736,2.516,7.892,2.469,11.824
	c-0.054,4.682-2.096,9.088-3.531,13.459c-1.552,4.714-2.149,9.498-1.88,14.442c0.558,10.083,4.409,19.357,6.346,29.202
	c-0.708-3.603-0.973-7.133-1.982-10.769c-0.885-3.175-1.513-6.581-2.1-9.842c-1.357-7.549-0.693-15.434,1.215-22.828
	c0.469-1.815,1.876-9.36,4.348-5.36c1.87,3.025,1.588,8.363,2.333,11.759c1.29,5.884,2.578,11.768,3.838,17.657
	c2.056,9.638,3.52,19.847,5.647,29.646c1.026,4.737,2.735,9.41,3.075,14.226c0.3,4.176,0.076,6.589-0.944,10.783
	c-0.672,2.767-1.096,5.612-1.51,8.421c-0.69,4.702-1.065,9.435-1.062,14.204c0.009,16.607,3.299,33.653,6.027,49.976
	c0.838,5.036,1.711,10.076,2.77,15.066c1.456,6.866,2.974,13.89,3.607,20.865c0.696,7.691-3.778,9.9-7.69,15.63
	c-2.958,4.332-4.896,9.617-7.458,14.271c-1.422,2.582-3.125,4.994-4.896,7.348c-1.697,2.256-4.17,4.672-5.305,7.227
	c1.692-1.236,3.15-3.182,4.475-4.803c2.978-3.645,5.674-7.812,7.85-11.963c2.181-4.166,4.118-8.584,6.893-12.404
	c0.91-1.258,1.987-2.379,3.063-3.486c0.869-0.896,1.563-2.047,2.399-2.889c0.611,4.922-1.888,8.971-4.105,13.062
	c-0.987,1.826-2.368,3.324-3.326,5.139c-1.109,2.109-2.138,4.291-2.662,6.629c-0.291,1.309-0.565,2.449,0.107,3.607
	c0.758,1.303,1.616,2.596,2.426,3.879c3.337,5.301,10.819,8.314,16.773,9.051c3.522,0.436,5.979,0.035,9.316-1.271
	c2.82-1.107,5.938-2.975,7.881-5.383c1.134-1.406,2.077-3.016,2.536-4.766c0.918-3.506-2.121-6.336-2.209-9.701
	c-0.092-3.566-1.461-6.836-2.004-10.357c-2.531-16.41-2.964-33.072-4.772-49.62c-0.646-5.884-0.957-11.653-1.243-17.564
	c-0.334-6.965,0.666-13.911,0.428-20.855c-0.169-4.958-1.424-10.142-1.901-15.161c-1.098-11.525-4.988-22.156-13.355-30.371
	c-2.803-2.752-5.386-5.73-7.388-9.118c-2.523-4.273-4.034-9.985-4.764-14.852c-1.459-9.764-3.062-19.289-5.078-28.992
	c-1.963-9.459-3.013-19.292-5.146-28.599c-1.179-5.144-2.662-10.207-4.248-15.249c-3.762-11.952-6.896-21.696-17.229-29.732
	c-7.128-5.544-16.09-8.891-25.024-9.966c-3.552-0.427-7.263,0.198-10.66,1.251c-3.597,1.118-6.496,4.293-9.756,2.039
	c-3.062-2.118-4.324-6.445-5.931-9.595c-0.862-1.693-1.882-3.251-2.682-4.982c-0.632-1.367-1.408-2.638-2.073-3.989
	c-0.407-0.835-0.896-2.533-1.803-2.972c0.226,0.707,0.028,1.47-0.018,2.189c-0.025,0.429-0.164,0.901-0.107,1.334
	c0.075,0.556,0.523,1.14,0.751,1.652c0.304,0.688,0.706,1.316,1.088,1.964c0.845,1.431,1.659,2.88,2.381,4.375
	c1.271,2.627,2.555,5.253,3.569,7.99c0.746,2.013,2.324,4.622,0.591,6.544c-1.916,2.124-4.291,3.665-6.051,6.011
	c-1.767,2.353-2.633,4.835-3.345,7.593c0.348-3.424,0.681-6.844,0.681-10.357c0-8.597,0.146-17.311,0.399-25.858
	c0.137-4.621-0.144-9.24-0.428-13.85c-0.253-4.073-1.102-8.739-0.479-12.79c0.583-3.793,1.59-7.478,2.338-11.246
	c0.465-2.344,0.964-4.602,1.73-6.859c0.472-1.39,0.667-2.925,1.48-4.18c1.039-1.592,3.547-2.489,3.586-4.494
	c-0.921,0.504-2.172,1.069-2.889,1.797c1.232-3.005,1.846-6.229,3.079-9.264c0.431-1.061,0.978-2.052,1.436-3.089
	c0.425-0.962,1.19-2.42,1.33-3.438c0.095-0.697-0.215-1.234-0.537-1.94c-0.411,0.903-0.767,2.458-1.438,3.13
	c-0.164-0.964-0.254-2.102-0.688-3.014c-0.436,1.184-0.977,1.211-0.641,2.629c0.18,0.756,0.93,1.926-0.003,2.381
	c-0.483-0.86-1.021-1.71-1.729-2.375c-0.262,0.957-0.225,1.236,0.203,2.12c0.316,0.65,0.847,1.531,0.835,2.263
	c-0.021,1.722-1.523,3.406-1.594,5.146c-0.668-0.573-1.281-1.552-1.733-2.313c-0.894,2.021,0.78,2.69,0.691,4.489
	c-0.042,0.811-0.708,2.438-1.201,3.068c-0.68,0.869-0.573,0.452-1.463-0.131c-1.062,1.209,0.472,2.391,0.375,3.723
	c-0.09,1.235-1.061,2.746-1.567,3.887c-1.096,2.464-0.924,5.062-0.972,7.765c0.322-0.756,0.092-1.774,0.138-2.597
	c0.186-3.361-0.176-6.628,0.03-9.986c0.222-3.573,0.18-7.172,0.399-10.754c0.142-2.28,0.249-4.57,0.396-6.85
	c0.289-4.511,0.937-8.949,1.773-13.406c0.475-2.521,0.91-7.635-2.96-7.896c0.636-0.164,1.312,0.457,1.957,0.458
	c2.096,0.003,4.782-1.849,6.537-2.84c2.895-1.635,5.146-3.629,7.583-5.88c0.281-0.261,0.818-0.621,0.962-0.998
	c0.293-0.773-0.373-1.703-0.332-2.558c-1.716,1.888-3.104,4.028-5.297,5.59c-1.154,0.822-2.368,1.477-3.594,2.227
	c-2.562,1.573-5.155,2.798-8.158,3.312c-1.369,0.236-2.14,0.081-3.277,0.918c-0.854,0.627-1.654,1.302-2.781,1.265
	c-1.645-0.055-2.879-0.922-3.852-2.146c-0.979-1.231-2.651-2.397-2.854-4.072c-0.975,0.801-1.26,1.005-0.62,2.22
	c0.436,0.824,3.604,5.082,4.86,4.39c-2.137,1.176-4.662,1.357-7.149,1.206c-1.862-0.115-5.178-0.805-6.405-2.401
	c0.187,0.241,1.975-1.171,2.166-1.411c0.543-0.68,0.943-1.538,1.316-2.32c0.576-1.205,0.071-1.552-0.642-2.616
	c-0.651,2.615-3.105,5.482-5.703,6.22c-1.95,0.555-3.354-1.15-5.107-0.834c-0.367,0.067-0.592,0.328-0.931,0.405
	c-0.7,0.157-1.608-0.058-2.267-0.237c-2.015-0.548-4.095-1.588-5.646-3c-1.5-1.365-3.488-2.476-4.444-4.351
	c-0.399-0.784-0.494-1.917-0.96-2.642c-0.521-0.809-0.508-0.444-1.448-0.78c-0.238-0.085,0.906,3.807,1.156,4.188
	c1.255,1.916,3.45,3.905,5.261,5.3c1.63,1.257,5.231,3.987,7.508,3.12c0.289-0.11,0.803-0.804,1.086-0.987
	c-2.926,1.415-2.149,6.076-2.078,8.66c0.09,3.15,0.433,6.374,0.916,9.479c0.496,3.179,0.073,6.412,0.272,9.608
	c0.185,2.917,0.513,5.854,0.504,8.783c-0.012,3.737,0.101,7.438,0.139,11.17c-0.429-1.271-0.061-2.874-0.139-4.221
	c-0.111-1.932-0.975-3.705-1.448-5.53c-0.563-2.173-1.371-4.287-1.979-6.452c-0.289-1.015-0.202-2.09,0.03-3.109
	c0.187-0.812,0.726-1.636,0.746-2.473c0.017-0.55-0.317-1.166-0.541-1.649c-0.166,1.109-0.521,1.966-1.098,2.961
	c-1.02-1.03-0.562-3.347-0.526-4.622c0.057-2.093,0.037-4.135,0.294-6.251c0.159-1.322,0.056-1.328-0.772-2.15
	c-0.124,1.168-0.381,2.542-0.687,3.667c-0.875-0.583-1.516-1.716-2.413-2.438c-0.006,0.426-0.083,0.727-0.1,1.132
	c2.844,1.72,2.441,5.479,2.512,8.365c-1-1.03-1.679-2.269-2.778-3.141c-0.046,0.482,0.024,0.973-0.138,1.429
	c1.135,1.445,2.461,2.666,2.913,4.559c0.499,2.09,0.785,4.29,1.309,6.37c-0.807-0.855-1.874-1.565-2.65-2.468
	c0.025,0.603,0.014,1.517,0.3,2.055c0.262,0.497,1.055,0.809,1.437,1.218c0.864,0.926,1.222,2.027,1.436,3.231
	c0.488,2.76,1.53,5.333,2.159,8.044c0.515,2.226,0.615,4.649,1.066,6.937c0.436,2.184,0.852,4.2,0.99,6.421
	c0.127,1.995,0.111,3.994,0.232,5.996c0.107,1.732,0.352,3.485,0.533,5.22c0.381,3.624,0.564,7.221,1.358,10.77
	c0.862,3.866,1.917,7.69,2.681,11.577c0.546,2.787,0.996,5.607,1.122,8.448c0.013,0.254-0.22,5.759-0.576,5.583
	c-1.561-0.778-2.813-1.917-4.524-2.596c-1.408-0.557-2.869-0.966-4.292-1.484c-2.101-0.764-1.595-0.95-0.972-2.786
	c0.85-2.501,1.718-4.479,3.18-6.76c1.325-2.073,2.68-4.145,4.061-6.146c0.453-0.657,0.308-0.932,0.107-1.703
	c-0.158-0.625-0.158-1.305-0.354-1.908c-0.332,1.17-1.636,2.301-2.332,3.257c-1.537,2.113-3.276,4.086-4.791,6.218
	c-1.023,1.444-2.177,2.912-3.326,4.253c-0.712,0.832-1.453,1.437-2.211,2.155c-2.263,2.136-2.653-0.944-3.37-2.685
	c-0.476-1.152-1.095-2.013-2.147-2.642c0.025,0.93,1.059,1.498,1.474,2.373c0.431,0.911,0.454,1.893,0.719,2.811
	c-0.081-0.278-2.507-1.447-2.853-1.709c-1.499-1.142-2.737-2.685-3.455-4.432c-0.321-0.779-0.463-1.792-1.24-2.211
	c0.445,1.981,1.14,4.384,2.715,5.743c-1.199-0.12-2.379-0.353-3.59-0.341c0.352,1.175,3.419,1.007,4.485,1.437
	c1.368,0.552,3.018,1.845,3.977,2.939c-1.37,0.071-2.619,0.47-4.003,0.476c-1.025,0.004-2.065-0.179-3.088-0.122
	c-5.106,0.281-10.449,1.739-15.351,3.14c-3.265,0.935-6.446,2.161-9.498,3.65c-4.569,2.23-8.532,5.813-13.147,7.854
	c-1.238,0.55-8.216,1.838-7.728,3.906c1.446-0.354,2.81-1.093,4.199-1.545c-0.074,0.921-0.664,1.174-1.231,1.845
	c-2.671,3.159-3.945,6.38-5.958,9.869c-2.583,4.478-4.567,9.274-6.25,14.152c-1.885,5.464-2.752,11.276-5.215,16.539
	c-2.467,5.271-6.356,9.462-9.276,14.458c-0.972,1.665-2.168,3.092-3.402,4.571c-0.72,0.862-2.497,2.14-2.281,3.359
	c0.615-0.549,1.43-1.094,2.111-1.517c-1.146,4.079-3.309,8.291-4.801,12.401c-2.258,6.222-3.518,12.402-2.224,19.007
	c0.881,4.497,1.343,8.347,0.494,12.945c-0.55,2.979-2.729,7.179-0.744,10.054c-1.133-2.286,0.337-5.263,1.056-7.432
	c0.733-2.213,1.063-5.165,0.918-7.53c0.681,0.784,1.195,1.706,1.89,2.471c0.23-1.552-1.265-3.623-1.626-5.182
	c-0.512-2.204-0.787-4.459-0.974-6.71c-0.35-4.195-0.088-8.745,0.974-12.83c1.068-4.113,3.044-7.912,4.592-11.852
	c0.6-1.529,0.81-3.153,1.229-4.655c0.78-2.797,2.555-5.124,4.341-7.354c1.094-1.365,4.808-6.048,6.42-2.995
	c0.949,1.798-0.112,4.898-0.463,6.761c-1.194,6.354-2.387,12.701-3.545,19.07c-1.51,8.312-3.08,16.577-4.659,24.854
	c-0.814,4.269-1.693,8.029-3.216,12.069c-1.437,3.812-2.447,8.056-5.265,11.145c-6.474,7.098-15.045,12.379-20.627,20.33
	c-1.718,2.446-2.621,5.209-3.461,8.016c-1.182,3.944-2.36,8.158-2.601,12.255c-0.374,6.333-0.18,12.424-0.959,18.747
	c-0.911,7.396-1.479,14.876-3.243,22.136c-0.863,3.553-2.344,6.782-2.885,10.372c-0.564,3.749-1.192,7.48-2.126,11.157
	c-1.01,3.984-4.058,4.844-7.499,5.785c-3.083,0.842-5.839,2.338-8.336,4.437c-4.84,4.071-11.853,4.229-16.634,8.29
	c4.4-2.547,9.657-3.33,14.052-5.963c3.433-2.058,6.814-5.57,11.082-5.596c3.059-0.021,0.815,1.94-0.136,3.495
	c-1.418,2.314-2.966,4.55-4.706,6.636c-2.046,2.457-5.417,3.688-8.275,4.912c-4.053,1.729-8.65,2.234-12.777,3.814
	c-3.78,1.447-6.114,4.188-9.19,6.744c-2.209,1.838-5.195,4.496-8.289,3.08c1.935,1.99,5.168,0.113,6.998-1.084
	c3.117-2.041,5.601-4.746,8.751-6.707c3.569-2.225,7.168-2.973,11.173-3.992c1.664-0.422,3.392-0.812,4.979-1.375
	c2.146-0.758,4.689-3.137,2.95,0.457c-1.349,2.787-2.087,5.762-3.309,8.6c-0.558,1.293-1.291,2.504-1.785,3.822
	c-0.883,2.361-1.402,4.832-1.846,7.309c-0.426,2.379-0.961,4.775-1.562,7.113c-1.192,4.645-1.352,9.406-1.886,14.146
	c-0.234,2.08-0.333,4.162-0.553,6.236c-0.16,1.512-0.489,3.025-0.715,4.525c-0.146,0.977-0.427,2.145-0.352,3.129
	c0.014-3.65,0.98-7.414,1.595-11.027c0.358-2.104,0.552-4.252,0.91-6.352c0.328-1.916,0.355-3.875,0.714-5.785
	c0.266-1.416,0.686-2.793,0.97-4.205c0.234-1.158,0.761-2.162,1.01-3.312c0.668-3.084,1.218-6.184,2.103-9.215
	c0.418-1.434,0.837-2.885,1.519-4.217c0.311-0.607,0.716-1.152,0.999-1.771c0.225-0.494,0.293-1.031,0.888-1.227
	c0.396-0.129,1.382,2.754,1.486,3.027c0.32,0.852,0.882,1.869,1.05,2.742c0.195,1.004-0.556,1.908-0.883,2.793
	c-0.862,2.332-1.339,4.803-2.234,7.1c-0.844,2.166-2.218,4.02-2.649,6.311c-0.741,3.938-1.748,7.781-2.601,11.691
	c-0.332,1.52-0.532,3.047-0.907,4.547c-0.276,1.104-0.271,2.492-0.694,3.508c0.332-0.973,0.404-2.014,0.718-2.998
	c0.328-1.023,0.552-2.068,0.774-3.123c0.467-2.209,0.935-4.395,1.512-6.576c0.495-1.877,0.932-3.811,1.614-5.637
	c0.477-1.273,0.665-2.67,1.23-3.91c0.622-1.359,1.315-2.705,1.886-4.102c0.611-1.49,1.037-3.037,1.681-4.518
	c0.408-0.936,0.796-3.195,2.047-3.34c0.566,1.342-0.656,3.416-0.871,4.764c-0.116,0.727-0.261,1.42-0.446,2.121
	c-0.205,0.785-0.185,1.332-0.258,2.115c-0.149,1.553-0.89,3.102-1.251,4.629c-0.414,1.75-0.71,3.521-0.971,5.303
	c-0.448,3.059-0.783,6.131-1.388,9.156c-0.727,3.639-2.031,7.146-2.822,10.785c-0.232,1.07-0.632,2.096-0.876,3.162
	c-0.235,1.031-0.506,2.139-0.604,3.174c0.489-1.223,0.822-2.645,1.213-3.918c1.376-4.471,2.988-8.869,4.009-13.439
	c0.971-4.346,1.833-8.682,2.483-13.086c0.462-3.141,1.117-6.156,1.885-9.203c0.322-1.279,0.455-3.619,1.375-4.613
	c0.538,1.021,2.034,1.885,3.043,2.365c0.768,0.363,1.637,0.893,2.472,1.016c-0.405,1.115-0.652,2.426-0.987,3.619
	c-1.179,4.205-2.875,8.285-4.391,12.352c-1.043,2.803-1.652,5.732-2.485,8.6c-0.945,3.248-1.729,6.545-2.835,9.746
	c-0.552,1.598-1.181,3.174-1.953,4.68c-0.326,0.635-0.49,1.268-0.77,1.898c-0.332,0.748-1.013,1.348-1.47,2.018
	c0.9-0.625,1.44-2.062,2.012-2.986c0.497-0.803,0.963-1.549,1.373-2.42c0.939-1.998,1.588-4.072,2.203-6.197
	c0.289-1.004,0.328-2.059,0.662-3.051c0.223-0.65,0.656-1.201,0.909-1.83c0.354-0.879,0.527-1.836,0.821-2.734
	c0.35-1.072,0.792-2.129,1.18-3.188c0.256-0.701,0.477-1.439,0.687-2.148c0.522-1.777,1.222-3.488,1.777-5.26
	c0.61-1.945,1.291-3.877,1.922-5.814c0.386-1.188,0.653-2.404,1.057-3.582c0.367-1.07,0.926-2.025,1.293-3.08
	c0.367,0.059,0.833,0.219,1.208,0.359c0.601,0.223-1.846,8.178-2.071,8.979c-1.199,4.271-1.939,8.619-3.483,12.771
	c-1.63,4.387-3.323,8.732-4.903,13.137c-0.52,1.449-1.034,2.971-1.227,4.506c-0.078,0.615-0.304,1.633,0.003,2.215
	c0.672-0.713,0.846-2.449,1.116-3.395c0.713-2.496,1.632-4.93,2.501-7.361c0.671-1.881,1.298-3.773,2.064-5.584
	c1.315-3.109,2.522-6.182,3.332-9.475c0.5-2.039,0.691-4.152,1.239-6.229c0.471-1.777,0.899-3.562,1.514-5.305
	c0.483-1.367,0.966-2.607,1.095-4.072c0.832,0.607,2.354,0.24,3.293,0.225c1.097-0.021,2.027-0.064,3.063,0.258
	c1.083,0.334,1.901-0.076,2.845-0.68c-0.009,0.482-0.338,1.105-0.488,1.592c-0.249,0.809-0.511,1.592-0.811,2.375
	c-0.511,1.336-0.679,2.779-1.237,4.104c-1.115,2.639-3.014,4.867-4.191,7.514c-1.048,2.355-2.287,4.598-3.194,7.021
	c-0.766,2.045-1.696,4.029-2.842,5.881c-0.983,1.59-1.957,3.18-2.929,4.771c-0.711,1.158-1.616,2.158-2.385,3.27
	c0.652-0.455,1.155-1.299,1.682-1.9c0.648-0.746,1.368-1.473,1.967-2.236c0.748-0.963,1.257-2.115,1.933-3.125
	c0.552-0.824,1.062-1.725,1.576-2.572c1.071-1.77,1.906-3.977,2.662-5.906c0.729-1.859,1.632-3.676,2.488-5.459
	c1.419-2.957,3.453-5.48,4.727-8.518c0.562-1.34,0.861-2.52,1.138-3.912c0.194-0.975,0.378-2.49,1.073-3.254
	c0.319-0.354,0.8-0.459,1.079-0.859c-0.464,0.67-0.155,1.449-0.186,2.188c-0.062,1.52-0.255,3.123-0.677,4.576
	c-0.41,1.408-0.665,2.893-1.008,4.32c-0.185,0.771-0.374,1.535-0.624,2.287c-0.592,1.773-1.144,3.418-2.158,4.969
	c-1.143,1.748-1.801,4.023-2.633,5.945c-1.804,4.17-3.666,8.324-5.851,12.312c0.991-0.904,1.473-2.352,2.189-3.467
	c0.859-1.336,1.614-2.789,2.326-4.219c2.358-4.742,4.86-9.549,6.489-14.6c1.122-3.479,2.078-7.15,2.659-10.76
	c0.203-1.266-0.071-2.629,0.282-3.854c0.119-0.416,0.143-0.432,0.596-0.707c0.777-0.473,1.888-0.926,2.382-1.68
	c1.148,3.607,0.644,7.455-0.435,11.014c-1.042,3.439-2.245,6.791-3.981,9.945c-0.938,1.701-1.949,3.359-2.907,5.055
	c-0.905,1.598-1.63,3.207-2.345,4.881c-0.535,1.258-1.09,2.691-1.927,3.771c2.019-3.105,3.894-6.49,5.687-9.756
	c1.008-1.832,2.015-3.678,3.008-5.512c1.648-3.041,3.204-6.293,4.015-9.654c0.292-1.215,0.689-2.549,0.816-3.777
	c0.137-1.312-0.256-2.814-0.406-4.115c-0.154-1.342-0.572-2.557-0.318-3.93c0.216-1.164,0.795-2.271,1.096-3.422
	c0.673-2.584,0.347-5.152,0.527-7.785c0.23-3.398,1.137-6.703,1.737-10.045c1.601-8.929,4.387-17.539,8.735-25.518
	c2.216-4.062,4.636-7.65,6.266-12.073c1.634-4.431,2.875-8.996,4.537-13.416c2.067-5.495,4.231-10.953,6.354-16.426
	c1.52-3.918,3.303-7.737,4.688-11.709c1.044-2.993,1.324-6.161,1.743-9.283c0.353-2.626,1.292-5.215,0.994-7.812
	c-0.696-6.045-1.526-11.863-3.335-17.701c-0.803-2.596-2.175-5.662-2.331-8.374c-0.187-3.259,1.879-7.22,2.69-10.308
	c0.679-2.583,1.197-5.235,1.757-7.842c0.443-2.06,1.396-3.971,1.937-6.004c0.202-0.761,0.297-4.746,1.198-5.016
	c0.739-0.221,2.136,1.859,2.553,2.314C222.814,277.854,223.931,279.343,225.042,280.881 M212.536,317.18
	c0.501,1.833,0.804,3.729,1.007,5.584c0.696,6.376-0.067,12.832-1.493,19.056c-0.651,2.844-1.561,5.611-1.921,8.457
	c-0.354,2.794-2.412,4.949-3.916,7.196c-2.784,4.156-6.772,7.279-10.44,10.613c-3.069,2.79-6.133,6.084-8.109,9.752
	c-3.272,6.075-5.66,12.683-8.208,19.081c-1.58,3.962-3.147,7.929-4.621,11.932c-0.744,2.021-1.463,4.05-2.149,6.091
	c-0.595,1.77-1.022,3.674-1.74,5.388c-0.427,1.02-1.153,1.887-1.784,2.784c-0.646,0.918-1.256,1.842-1.998,2.688
	c-0.328,0.375-0.955,0.814-1.128,1.244c0.847-0.688,1.639-1.514,2.445-2.234c0.746-0.668,1.291-1.607,1.997-2.336
	c0.115,1.199,0.147,2.451,0.147,3.656c0,1.447-0.361,2.861-0.337,4.311c-0.008-0.494,0.288-1.23,0.375-1.74
	c0.098-0.576,0.249-1.156,0.504-1.674c0.716,0.426,0.727,1.695,1.041,2.398c0.075-0.293-0.136-0.684-0.2-0.979
	c-0.159-0.727-0.286-1.479-0.466-2.197c-0.205-0.82-0.298-1.666-0.224-2.51c0.067-0.748-0.028-1.703,0.24-2.411
	c0.469-1.232,0.94-2.465,1.411-3.698c-0.117,0.305,0.826,1.473,0.972,1.721c0.156,0.265,0.963,1.244,0.946,1.496
	c0.06-0.893-0.926-1.841-1.201-2.687c-0.147-0.453-0.374-1.156-0.338-1.624c0.057-0.754,0.448-1.58,0.688-2.294
	c0.521-1.552,1.129-3.045,1.712-4.571c3.037-7.934,6.512-15.703,9.204-23.769c2.415-7.237,7.141-13.386,12.924-18.349
	c3.229-2.771,6.165-5.878,9.287-8.643c-1.423,4.813-3.315,9.385-4.876,14.131c-1.108,3.367-2.308,6.703-3.572,10.013
	c-2.925,7.667-7.165,14.423-10.591,21.832c-2.661,5.755-4.731,11.782-6.163,17.958c-1.176,5.08-3.431,9.514-8.162,12.162
	c-4.209,2.357-10.499,0.795-14.103-2.033c-5.37-4.209-1.755-7.445,2.019-10.52c2.807-2.29,4.649-5.178,6.387-8.18
	c3.61-6.24,3.58-12.532,4.882-19.431c2.008-10.639,4.326-21.665,5.759-32.402c1.665-12.468,4.51-25.575,10.62-36.664
	c3.583-6.498,9.439-11.292,14.943-16.096c2.12-1.852,3.446-1.211,5.108,0.932C210.917,312.554,211.89,314.813,212.536,317.18
	 M329.596,128.032c-0.061,2.235-0.129,4.468-0.09,6.736c0.085,4.994,0.234,9.989,0.294,14.984c0.054,4.589-0.406,9.16-0.608,13.741
	c-0.177,3.925-0.859,7.66-0.622,11.639c0.146,2.468,0.012,4.969-0.323,7.416c-0.179,1.293-0.325,4.084-1.494,4.957
	c-1.97,1.469-7.185-7.474-8.486-9.04c-1.838-2.206-4.219-4.276-5.725-6.696c-1.418-2.28-1.217-5.724-1.641-8.308
	c-0.487-2.983-0.936-5.975-1.409-8.97c-1.044-6.583-1.998-13.181-3.166-19.744c-0.782-4.386-1.375-8.802-1.909-13.223
	c-0.747-6.149-0.267-12.63-0.11-18.813c0.231-9.328-0.779-18.698-1.345-28.008c-0.187-3.085-0.815-6.272-0.671-9.348
	c0.04-0.886,0.295-1.913,0.831-2.639c0.62-0.84,1.462-0.873,2.324-1.368c-0.464,0.196-0.913,0.423-1.248,0.783
	c0.253-0.273,2.544,0.356,3.055,0.253c0.646-0.13,1.569-0.571,2.062-1.005c1.742,1.844,4.834,1.294,7.094,1.707
	c1.598,0.291,3.104,0.813,4.711,0.534c1.287-0.227,2.511-0.978,3.781-1.175c1.083-0.166,2.173,0.624,3.219,0.214
	c1.062-0.418,2.796-1.979,4.007-0.953c-0.321-0.446-0.753-0.919-1.173-1.293c3.825,2.409,3.537,5.448,2.479,9.463
	c-0.667,2.542-1.536,5.206-1.69,7.858c-0.171,2.927-0.178,5.826-0.319,8.75c-0.366,7.618-1.039,15.144-1.438,22.762
	c-0.002,0.059-0.007,0.118-0.011,0.177c-0.209,3.782-0.497,7.654-0.353,11.449C329.711,123.289,329.656,125.662,329.596,128.032
	 M179.538,444.593c-0.398,1.477-1.063,2.832-2.472,3.984c-0.749,0.615-1.634,1.178-2.502,1.605
	c-3.585,1.783-7.581,2.184-11.522,1.418c-1.591-0.309-2.688-1.139-4.061-1.848c-1.409-0.729-2.834-1.424-4.042-2.473
	c-2.001-1.734-3.115-4.104-3.863-6.6c-0.29-0.965-0.56-1.939-0.64-2.947c-0.082-1.016,0.178-1.658,0.286-2.643
	c0.543,0.57,0.802,1.543,1.312,2.199c0.729,0.938,1.59,1.766,2.394,2.631c1.739,1.873,3.667,3.49,6.139,4.24
	c2.958,0.896,6.226,1.648,9.323,1.207c0.885-0.129,1.739-0.312,2.626-0.447c0.574-0.09,2.126-0.99,0.886-1.119
	c-0.451-0.047-1.338,0.436-1.792,0.541c-0.798,0.189-1.604,0.344-2.423,0.402c-1.471,0.104-2.99-0.035-4.445-0.271
	c-2.355-0.379-4.702-1.008-6.589-2.477c-1.806-1.406-3.578-2.869-4.966-4.707c-0.787-1.041-1.731-2.26-1.901-3.596
	c-0.186-1.48,1.123-2.566,1.833-3.729c0.365-0.6,0.844-1.064,1.236-1.633c0.33-0.475,1.117-1.365,1.235-1.918
	c-0.357,1.691,0.297,3.352,1.058,4.834c0.445,0.865,0.973,1.836,1.686,2.506c1.72,1.617,3.344,2.93,5.669,3.619
	c1.455,0.434,2.98,0.633,4.498,0.584c2.639-0.084,5.266-0.811,7.504-2.227c2.33-1.479,3.647-3.564,5.387-5.609
	c0.15,0.791-0.279,1.867-0.425,2.656c-0.197,1.057-0.292,2.053-0.289,3.127c0.004,1.285,0.003,2.688-0.264,3.967
	C180.069,441.517,179.937,443.117,179.538,444.593 M447.202,371.87c0.011,0.163,0.021,0.324,0.032,0.485
	c0.133,2.064,0.249,4.059,0.525,6.115c0.591,4.384,0.997,8.805,1.331,13.207c0.659,8.612,1.502,17.218,2.331,25.797
	c0.298,3.096,1.721,6.422,1.067,9.471c-0.625,2.93-1.925,5.619-3.336,8.244c-0.449,0.836-0.99,1.59-1.196,2.52
	c-0.159,0.713-0.075,1.473-0.295,2.16c-1.066,3.344-5.133,5.506-8.403,3.945c-4.103-1.951-0.917-8.395-2.081-11.818
	c-0.634-1.867-1.584-3.529-2.269-5.365c-0.963-2.592-2.111-4.557-1.454-7.342c0.594-2.507,1.144-5.366,0.786-7.941
	c-0.327-2.342-0.549-4.732-0.892-7.096c-0.761-5.264-2.094-10.421-3.135-15.632c-0.638-3.2-1.117-6.445-1.688-9.645
	c-0.407-2.271-0.698-4.563-1.198-6.817c-0.385-1.738-0.322-3.434-0.683-5.172c-0.945-4.592-1.767-9.204-2.394-13.852
	c-0.171-1.255-2.769-17.072-0.732-17.058c0.537,0.003,0.78,0.786,0.992,1.168c0.789,1.411,1.423,2.977,2.082,4.43
	c0.825,1.814,1.806,3.549,2.488,5.441c1.107,3.056,2.099,6.354,2.731,9.536c0.443,2.239,1.519,4.422,1.646,6.706
	c0.1,1.762,0.679,3.288,1.022,5.01c0.379,1.908,0.556,3.849,0.784,5.779c0.388,3.221,0.485,6.495-0.26,9.674
	c-0.207,0.881-0.806,2.242-0.358,3.012c0.554-1.147,0.74-2.543,1.188-3.731c0.117-0.008,0.226-0.004,0.345-0.002
	c1.088,3.926,1.433,7.842,1.698,11.869c0.128,1.945,0.267,3.918,0.389,5.881c0.104,1.686,0.607,3.481,0.554,5.141
	c0.622-1.349-0.102-4.158-0.155-5.726c-0.064-1.679-0.021-3.35-0.135-5.012c-0.193-2.795-0.266-5.758-0.798-8.515
	c-0.654-3.366-1.132-6.762-1.564-10.162c-0.352-2.754-0.198-5.33-0.698-8.076c-1.236-6.789-2.153-13.684-4.588-20.181
	c-1.123-3.001-2.298-5.903-3.669-8.779c-2.333-4.9-4.923-10.388-4.276-15.858c0.811-6.854,1.105-13.468,2.682-20.253
	c0.208-0.894,0.732-4.313,1.466-4.85c4.69-3.434,14.815,14.693,15.577,18.015c1.396,6.08,3.309,11.661,3.702,17.971
	c0.63,10.021,0.615,19.184-3.292,28.473c-1.432,3.401-2.641,6.765-3.47,10.378c-1.262,5.504-0.255,10.896-0.197,16.442
	c0.022,2.405,0.075,4.813,0.188,7.218c0.104,2.271,0.521,4.249,0.893,6.453c1.057,6.308,0.963,12.723,1.053,19.083
	c0.042,3.121-0.279,7.529,1.011,10.154c-0.312-2.9-0.204-5.818-0.169-8.729c0.018-1.576-0.9-5.698,0.221-6.896
	c1.953,2.354,2.144,7.599,2.665,10.527c0.486,2.734,0.312,5.693,0.252,8.498c0.765-1.828,0.168-4.322,0.326-6.287
	c0.562,0.494,1.063,1.43,1.778,1.822c-0.021-1.285-1.294-2.609-1.572-3.977c-0.357-1.762-0.423-3.566-0.852-5.322
	c-0.366-1.505-0.625-2.926-1.382-4.263c-0.776-1.377-1.362-2.938-1.66-4.5c-0.332-1.742-0.158-3.645-0.221-5.411
	c-0.059-1.736-0.403-3.469-0.598-5.206c-0.422-3.82-0.552-7.673-0.321-11.514c0.229-3.78-0.572-7.342-0.931-11.013
	c-0.36-3.666,0.666-7.726,1.916-11.14c1.609-4.402,2.944-8.903,5.131-13.075C447.043,361.433,446.9,366.729,447.202,371.87
	 M457.845,446.414c0.538,1.311,1.132,2.695,1.271,4.082c0.246,2.463-1.562,4.734-3.187,6.381
	c-4.137,4.189-11.605,6.857-17.426,5.365c-2.867-0.732-6.18-1.684-8.407-3.713c-2.394-2.178-4.974-4.182-6.469-7.145
	c-2.041-4.049,1.097-8.176,3.024-11.52c0.172-0.039,0.312-0.023,0.484-0.002c0.211,0.02,2.025,3.869,2.345,4.309
	c2.312,3.209,5.156,6.207,8.861,7.775c2.571,1.09,5.808,2.498,8.588,1.664c2.151-0.646,4.987-2.105,5.879-4.316
	c-1.662,0.875-2.844,2.193-4.752,2.801c-3.021,0.959-7.968,0.262-10.543-1.688c-1.363-1.031-2.995-1.781-4.26-2.971
	c-2.254-2.115-3.347-4.885-4.332-7.766c-0.746-2.182,1.271-4.969,2.01-6.988c0.214-0.58,1.967-6.777,1.99-6.777
	c0.613-0.014,0.787,0.982,1.053,1.496c0.522,1.01,1.414,1.881,1.307,3.113c-0.086,0.98-0.993,1.93-0.779,2.914
	c0.001,0.004,1.1-1.873,1.322-1.951c1.062,2.504,0.326,4.357,0.205,6.973c-0.098,2.066,0.502,4.656,2.312,5.912
	c1.49,1.033,3.411,0.578,5.178,0.688c-0.13,0.523-0.029,1.189-0.229,1.682c0.04,0.055,0.088,0.094,0.147,0.115
	c0.616-0.746,0.62-1.562,1.298-2.318c0.601-0.668,1.414-1.248,2.021-1.896c0.751-0.801,1.339-1.438,1.572-2.521
	c0.248-1.156,0.274-2.424,1.439-3.061c0.338,1.146,0.104,2.92,0.658,3.844c0.228-2.258-0.584-4.455,0.196-6.545
	c0.533-1.428,1.298-2.65,1.802-4.1c0.341-0.979,0.688-2.115,1.229-2.947c0.569,1.01,0.508,3.152,0.659,4.416
	c0.2,1.666,0.021,3.463,0.284,5.088c0.512,3.148,1.861,6.182,3.048,9.123C457.712,446.093,457.776,446.253,457.845,446.414"/>
<path fill="none" stroke="#FFBF00" stroke-width="0.32" d="M225.042,280.881c0.488-1.743-1.58-3.372-2.583-4.605
	c-0.912-1.119-2.26-2.398-2.585-3.864c-0.631-2.847,0.775-6.413,1.146-9.237c0.564-4.289,1.083-8.584,1.638-12.875
	c0.254-1.972,0.345-4.079,0.744-6.016c0.342-1.656,0.775-1.767,1.673-0.27c0.589,0.981,0.955,1.965,1.418,3.02
	c0.842,1.919,2.06,4.296,2.653,5.878c0.827-1.268-0.796-3.56-1.401-4.78c-1.537-3.093-3.287-6.523-3.192-10.071
	c0.102-3.819,1.453-7.839,2.118-11.605c0.497-2.814,1.616-5.384,1.892-8.234c0.261-2.682,1.254-5.494,2.131-8.073
	c1.137-3.342,2.387-6.65,3.804-9.886c0.659-1.5,1.647-2.837,2.215-4.378c0.567-1.535,0.692-3.75,2.174-4.755
	c0.271,3.523,0.475,7.207,1.303,10.622c1.591-0.927,0.067-4.716-0.039-6.384c-0.37-5.82,2.823-9.722,6.95-13.376
	c4.646-4.117,10.072-7.328,15.839-9.602c4.137-1.634,8.292-3.076,12.707-3.795c5.268-0.856,10.467-1.625,15.781-0.628
	c3.542,0.664,6.108,1.437,8.944,3.622c2.85,2.199,5.152,4.993,7.605,7.598c2.562,2.719,5.021,5.515,7.232,8.52
	c1.429,1.938,4.453,4.746,4.454,7.333c0.001,1.457-0.981,3.161-1.122,4.703c-0.158,1.727-0.07,3.489,0.245,5.195
	c0.741,4.043,2.473,7.825,4.068,11.583c0.975,2.295,1.41,2.517,3.882,2.702c1.989,0.148,3.795,0.065,5.695-0.706
	c0.671-0.272,5.946-3.607,5.041-4.599c-2.123-2.324-6.477-13.547-2.684-15.657c-0.119,0.068,1.139,2.735,1.257,2.973
	c3.57-0.861,9.044-7.422,7.453-11.265c-1.219-2.946-4.068-3.971-6.849-4.567c0.459,0.098,1.681-4.026,1.972-4.599
	c3.796-7.441,13.682-13.373,21.882-14.378c11.962-1.465,22.988,4.76,31.041,13.145c5.854,6.094,9.604,13.535,11.985,21.582
	c1.105,3.736,2.516,7.892,2.469,11.824c-0.054,4.682-2.096,9.088-3.531,13.459c-1.552,4.714-2.149,9.498-1.88,14.442
	c0.558,10.083,4.409,19.357,6.346,29.202c-0.708-3.603-0.973-7.133-1.982-10.769c-0.885-3.175-1.513-6.581-2.1-9.842
	c-1.357-7.549-0.693-15.434,1.215-22.828c0.469-1.815,1.876-9.36,4.348-5.36c1.87,3.025,1.588,8.363,2.333,11.759
	c1.29,5.884,2.578,11.768,3.838,17.657c2.056,9.638,3.52,19.847,5.647,29.646c1.026,4.737,2.735,9.41,3.075,14.226
	c0.3,4.176,0.076,6.589-0.944,10.783c-0.672,2.767-1.096,5.612-1.51,8.421c-0.69,4.702-1.065,9.435-1.062,14.204
	c0.009,16.607,3.299,33.653,6.027,49.976c0.838,5.036,1.711,10.076,2.77,15.066c1.456,6.866,2.974,13.89,3.607,20.865
	c0.696,7.691-3.778,9.9-7.69,15.63c-2.958,4.332-4.896,9.617-7.458,14.271c-1.422,2.582-3.125,4.994-4.896,7.348
	c-1.697,2.256-4.17,4.672-5.305,7.227c1.692-1.236,3.15-3.182,4.475-4.803c2.978-3.645,5.674-7.812,7.85-11.963
	c2.181-4.166,4.118-8.584,6.893-12.404c0.91-1.258,1.987-2.379,3.063-3.486c0.869-0.896,1.563-2.047,2.399-2.889
	c0.611,4.922-1.888,8.971-4.105,13.062c-0.987,1.826-2.368,3.324-3.326,5.139c-1.109,2.109-2.138,4.291-2.662,6.629
	c-0.291,1.309-0.565,2.449,0.107,3.607c0.758,1.303,1.616,2.596,2.426,3.879c3.337,5.301,10.819,8.314,16.773,9.051
	c3.522,0.436,5.979,0.035,9.316-1.271c2.82-1.107,5.938-2.975,7.881-5.383c1.134-1.406,2.077-3.016,2.536-4.766
	c0.918-3.506-2.121-6.336-2.209-9.701c-0.092-3.566-1.461-6.836-2.004-10.357c-2.531-16.41-2.964-33.072-4.772-49.62
	c-0.646-5.884-0.957-11.653-1.243-17.564c-0.334-6.965,0.666-13.911,0.428-20.855c-0.169-4.958-1.424-10.142-1.901-15.161
	c-1.098-11.525-4.988-22.156-13.355-30.371c-2.803-2.752-5.386-5.73-7.388-9.118c-2.523-4.273-4.034-9.985-4.764-14.852
	c-1.459-9.764-3.062-19.289-5.078-28.992c-1.963-9.459-3.013-19.292-5.146-28.599c-1.179-5.144-2.662-10.207-4.248-15.249
	c-3.762-11.952-6.896-21.696-17.229-29.732c-7.128-5.544-16.09-8.891-25.024-9.966c-3.552-0.427-7.263,0.198-10.66,1.251
	c-3.597,1.118-6.496,4.293-9.756,2.039c-3.062-2.118-4.324-6.445-5.931-9.595c-0.862-1.693-1.882-3.251-2.682-4.982
	c-0.632-1.367-1.408-2.638-2.073-3.989c-0.407-0.835-0.896-2.533-1.803-2.972c0.226,0.707,0.028,1.47-0.018,2.189
	c-0.025,0.429-0.164,0.901-0.107,1.334c0.075,0.556,0.523,1.14,0.751,1.652c0.304,0.688,0.706,1.316,1.088,1.964
	c0.845,1.431,1.659,2.88,2.381,4.375c1.271,2.627,2.555,5.253,3.569,7.99c0.746,2.013,2.324,4.622,0.591,6.544
	c-1.916,2.124-4.291,3.665-6.051,6.011c-1.767,2.353-2.633,4.835-3.345,7.593c0.348-3.424,0.681-6.844,0.681-10.357
	c0-8.597,0.146-17.311,0.399-25.858c0.137-4.621-0.144-9.24-0.428-13.85c-0.253-4.073-1.102-8.739-0.479-12.79
	c0.583-3.793,1.59-7.478,2.338-11.246c0.465-2.344,0.964-4.602,1.73-6.859c0.472-1.39,0.667-2.925,1.48-4.18
	c1.039-1.592,3.547-2.489,3.586-4.494c-0.921,0.504-2.172,1.069-2.889,1.797c1.232-3.005,1.846-6.229,3.079-9.264
	c0.431-1.061,0.978-2.052,1.436-3.089c0.425-0.962,1.19-2.42,1.33-3.438c0.095-0.697-0.215-1.234-0.537-1.94
	c-0.411,0.903-0.767,2.458-1.438,3.13c-0.164-0.964-0.254-2.102-0.688-3.014c-0.436,1.184-0.977,1.211-0.641,2.629
	c0.18,0.756,0.93,1.926-0.003,2.381c-0.483-0.86-1.021-1.71-1.729-2.375c-0.262,0.957-0.225,1.236,0.203,2.12
	c0.316,0.65,0.847,1.531,0.835,2.263c-0.021,1.722-1.523,3.406-1.594,5.146c-0.668-0.573-1.281-1.552-1.733-2.313
	c-0.894,2.021,0.78,2.69,0.691,4.489c-0.042,0.811-0.708,2.438-1.201,3.068c-0.68,0.869-0.573,0.452-1.463-0.131
	c-1.062,1.209,0.472,2.391,0.375,3.723c-0.09,1.235-1.061,2.746-1.567,3.887c-1.096,2.464-0.924,5.062-0.972,7.765
	c0.322-0.756,0.092-1.774,0.138-2.597c0.186-3.361-0.176-6.628,0.03-9.986c0.222-3.573,0.18-7.172,0.399-10.754
	c0.142-2.28,0.249-4.57,0.396-6.85c0.289-4.511,0.937-8.949,1.773-13.406c0.475-2.521,0.91-7.635-2.96-7.896
	c0.636-0.164,1.312,0.457,1.957,0.458c2.096,0.003,4.782-1.849,6.537-2.84c2.895-1.635,5.146-3.629,7.583-5.88
	c0.281-0.261,0.818-0.621,0.962-0.998c0.293-0.773-0.373-1.703-0.332-2.558c-1.716,1.888-3.104,4.028-5.297,5.59
	c-1.154,0.822-2.368,1.477-3.594,2.227c-2.562,1.573-5.155,2.798-8.158,3.312c-1.369,0.236-2.14,0.081-3.277,0.918
	c-0.854,0.627-1.654,1.302-2.781,1.265c-1.645-0.055-2.879-0.922-3.852-2.146c-0.979-1.231-2.651-2.397-2.854-4.072
	c-0.975,0.801-1.26,1.005-0.62,2.22c0.436,0.824,3.604,5.082,4.86,4.39c-2.137,1.176-4.662,1.357-7.149,1.206
	c-1.862-0.115-5.178-0.805-6.405-2.401c0.187,0.241,1.975-1.171,2.166-1.411c0.543-0.68,0.943-1.538,1.316-2.32
	c0.576-1.205,0.071-1.552-0.642-2.616c-0.651,2.615-3.105,5.482-5.703,6.22c-1.95,0.555-3.354-1.15-5.107-0.834
	c-0.367,0.067-0.592,0.328-0.931,0.405c-0.7,0.157-1.608-0.058-2.267-0.237c-2.015-0.548-4.095-1.588-5.646-3
	c-1.5-1.365-3.488-2.476-4.444-4.351c-0.399-0.784-0.494-1.917-0.96-2.642c-0.521-0.809-0.508-0.444-1.448-0.78
	c-0.238-0.085,0.906,3.807,1.156,4.188c1.255,1.916,3.45,3.905,5.261,5.3c1.63,1.257,5.231,3.987,7.508,3.12
	c0.289-0.11,0.803-0.804,1.086-0.987c-2.926,1.415-2.149,6.076-2.078,8.66c0.09,3.15,0.433,6.374,0.916,9.479
	c0.496,3.179,0.073,6.412,0.272,9.608c0.185,2.917,0.513,5.854,0.504,8.783c-0.012,3.737,0.101,7.438,0.139,11.17
	c-0.429-1.271-0.061-2.874-0.139-4.221c-0.111-1.932-0.975-3.705-1.448-5.53c-0.563-2.173-1.371-4.287-1.979-6.452
	c-0.289-1.015-0.202-2.09,0.03-3.109c0.187-0.812,0.726-1.636,0.746-2.473c0.017-0.55-0.317-1.166-0.541-1.649
	c-0.166,1.109-0.521,1.966-1.098,2.961c-1.02-1.03-0.562-3.347-0.526-4.622c0.057-2.093,0.037-4.135,0.294-6.251
	c0.159-1.322,0.056-1.328-0.772-2.15c-0.124,1.168-0.381,2.542-0.687,3.667c-0.875-0.583-1.516-1.716-2.413-2.438
	c-0.006,0.426-0.083,0.727-0.1,1.132c2.844,1.72,2.441,5.479,2.512,8.365c-1-1.03-1.679-2.269-2.778-3.141
	c-0.046,0.482,0.024,0.973-0.138,1.429c1.135,1.445,2.461,2.666,2.913,4.559c0.499,2.09,0.785,4.29,1.309,6.37
	c-0.807-0.855-1.874-1.565-2.65-2.468c0.025,0.603,0.014,1.517,0.3,2.055c0.262,0.497,1.055,0.809,1.437,1.218
	c0.864,0.926,1.222,2.027,1.436,3.231c0.488,2.76,1.53,5.333,2.159,8.044c0.515,2.226,0.615,4.649,1.066,6.937
	c0.436,2.184,0.852,4.2,0.99,6.421c0.127,1.995,0.111,3.994,0.232,5.996c0.107,1.732,0.352,3.485,0.533,5.22
	c0.381,3.624,0.564,7.221,1.358,10.77c0.862,3.866,1.917,7.69,2.681,11.577c0.546,2.787,0.996,5.607,1.122,8.448
	c0.013,0.254-0.22,5.759-0.576,5.583c-1.561-0.778-2.813-1.917-4.524-2.596c-1.408-0.557-2.869-0.966-4.292-1.484
	c-2.101-0.764-1.595-0.95-0.972-2.786c0.85-2.501,1.718-4.479,3.18-6.76c1.325-2.073,2.68-4.145,4.061-6.146
	c0.453-0.657,0.308-0.932,0.107-1.703c-0.158-0.625-0.158-1.305-0.354-1.908c-0.332,1.17-1.636,2.301-2.332,3.257
	c-1.537,2.113-3.276,4.086-4.791,6.218c-1.023,1.444-2.177,2.912-3.326,4.253c-0.712,0.832-1.453,1.437-2.211,2.155
	c-2.263,2.136-2.653-0.944-3.37-2.685c-0.476-1.152-1.095-2.013-2.147-2.642c0.025,0.93,1.059,1.498,1.474,2.373
	c0.431,0.911,0.454,1.893,0.719,2.811c-0.081-0.278-2.507-1.447-2.853-1.709c-1.499-1.142-2.737-2.685-3.455-4.432
	c-0.321-0.779-0.463-1.792-1.24-2.211c0.445,1.981,1.14,4.384,2.715,5.743c-1.199-0.12-2.379-0.353-3.59-0.341
	c0.352,1.175,3.419,1.007,4.485,1.437c1.368,0.552,3.018,1.845,3.977,2.939c-1.37,0.071-2.619,0.47-4.003,0.476
	c-1.025,0.004-2.065-0.179-3.088-0.122c-5.106,0.281-10.449,1.739-15.351,3.14c-3.265,0.935-6.446,2.161-9.498,3.65
	c-4.569,2.23-8.532,5.813-13.147,7.854c-1.238,0.55-8.216,1.838-7.728,3.906c1.446-0.354,2.81-1.093,4.199-1.545
	c-0.074,0.921-0.664,1.174-1.231,1.845c-2.671,3.159-3.945,6.38-5.958,9.869c-2.583,4.478-4.567,9.274-6.25,14.152
	c-1.885,5.464-2.752,11.276-5.215,16.539c-2.467,5.271-6.356,9.462-9.276,14.458c-0.972,1.665-2.168,3.092-3.402,4.571
	c-0.72,0.862-2.497,2.14-2.281,3.359c0.615-0.549,1.43-1.094,2.111-1.517c-1.146,4.079-3.309,8.291-4.801,12.401
	c-2.258,6.222-3.518,12.402-2.224,19.007c0.881,4.497,1.343,8.347,0.494,12.945c-0.55,2.979-2.729,7.179-0.744,10.054
	c-1.133-2.286,0.337-5.263,1.056-7.432c0.733-2.213,1.063-5.165,0.918-7.53c0.681,0.784,1.195,1.706,1.89,2.471
	c0.23-1.552-1.265-3.623-1.626-5.182c-0.512-2.204-0.787-4.459-0.974-6.71c-0.35-4.195-0.088-8.745,0.974-12.83
	c1.068-4.113,3.044-7.912,4.592-11.852c0.6-1.529,0.81-3.153,1.229-4.655c0.78-2.797,2.555-5.124,4.341-7.354
	c1.094-1.365,4.808-6.048,6.42-2.995c0.949,1.798-0.112,4.898-0.463,6.761c-1.194,6.354-2.387,12.701-3.545,19.07
	c-1.51,8.312-3.08,16.577-4.659,24.854c-0.814,4.269-1.693,8.029-3.216,12.069c-1.437,3.812-2.447,8.056-5.265,11.145
	c-6.474,7.098-15.045,12.379-20.627,20.33c-1.718,2.446-2.621,5.209-3.461,8.016c-1.182,3.944-2.36,8.158-2.601,12.255
	c-0.374,6.333-0.18,12.424-0.959,18.747c-0.911,7.396-1.479,14.876-3.243,22.136c-0.863,3.553-2.344,6.782-2.885,10.372
	c-0.564,3.749-1.192,7.48-2.126,11.157c-1.01,3.984-4.058,4.844-7.499,5.785c-3.083,0.842-5.839,2.338-8.336,4.437
	c-4.84,4.071-11.853,4.229-16.634,8.29c4.4-2.547,9.657-3.33,14.052-5.963c3.433-2.058,6.814-5.57,11.082-5.596
	c3.059-0.021,0.815,1.94-0.136,3.495c-1.418,2.314-2.966,4.55-4.706,6.636c-2.046,2.457-5.417,3.688-8.275,4.912
	c-4.053,1.729-8.65,2.234-12.777,3.814c-3.78,1.447-6.114,4.188-9.19,6.744c-2.209,1.838-5.195,4.496-8.289,3.08
	c1.935,1.99,5.168,0.113,6.998-1.084c3.117-2.041,5.601-4.746,8.751-6.707c3.569-2.225,7.168-2.973,11.173-3.992
	c1.664-0.422,3.392-0.812,4.979-1.375c2.146-0.758,4.689-3.137,2.95,0.457c-1.349,2.787-2.087,5.762-3.309,8.6
	c-0.558,1.293-1.291,2.504-1.785,3.822c-0.883,2.361-1.402,4.832-1.846,7.309c-0.426,2.379-0.961,4.775-1.562,7.113
	c-1.192,4.645-1.352,9.406-1.886,14.146c-0.234,2.08-0.333,4.162-0.553,6.236c-0.16,1.512-0.489,3.025-0.715,4.525
	c-0.146,0.977-0.427,2.145-0.352,3.129c0.014-3.65,0.98-7.414,1.595-11.027c0.358-2.104,0.552-4.252,0.91-6.352
	c0.328-1.916,0.355-3.875,0.714-5.785c0.266-1.416,0.686-2.793,0.97-4.205c0.234-1.158,0.761-2.162,1.01-3.312
	c0.668-3.084,1.218-6.184,2.103-9.215c0.418-1.434,0.837-2.885,1.519-4.217c0.311-0.607,0.716-1.152,0.999-1.771
	c0.225-0.494,0.293-1.031,0.888-1.227c0.396-0.129,1.382,2.754,1.486,3.027c0.32,0.852,0.882,1.869,1.05,2.742
	c0.195,1.004-0.556,1.908-0.883,2.793c-0.862,2.332-1.339,4.803-2.234,7.1c-0.844,2.166-2.218,4.02-2.649,6.311
	c-0.741,3.938-1.748,7.781-2.601,11.691c-0.332,1.52-0.532,3.047-0.907,4.547c-0.276,1.104-0.271,2.492-0.694,3.508
	c0.332-0.973,0.404-2.014,0.718-2.998c0.328-1.023,0.552-2.068,0.774-3.123c0.467-2.209,0.935-4.395,1.512-6.576
	c0.495-1.877,0.932-3.811,1.614-5.637c0.477-1.273,0.665-2.67,1.23-3.91c0.622-1.359,1.315-2.705,1.886-4.102
	c0.611-1.49,1.037-3.037,1.681-4.518c0.408-0.936,0.796-3.195,2.047-3.34c0.566,1.342-0.656,3.416-0.871,4.764
	c-0.116,0.727-0.261,1.42-0.446,2.121c-0.205,0.785-0.185,1.332-0.258,2.115c-0.149,1.553-0.89,3.102-1.251,4.629
	c-0.414,1.75-0.71,3.521-0.971,5.303c-0.448,3.059-0.783,6.131-1.388,9.156c-0.727,3.639-2.031,7.146-2.822,10.785
	c-0.232,1.07-0.632,2.096-0.876,3.162c-0.235,1.031-0.506,2.139-0.604,3.174c0.489-1.223,0.822-2.645,1.213-3.918
	c1.376-4.471,2.988-8.869,4.009-13.439c0.971-4.346,1.833-8.682,2.483-13.086c0.462-3.141,1.117-6.156,1.885-9.203
	c0.322-1.279,0.455-3.619,1.375-4.613c0.538,1.021,2.034,1.885,3.043,2.365c0.768,0.363,1.637,0.893,2.472,1.016
	c-0.405,1.115-0.652,2.426-0.987,3.619c-1.179,4.205-2.875,8.285-4.391,12.352c-1.043,2.803-1.652,5.732-2.485,8.6
	c-0.945,3.248-1.729,6.545-2.835,9.746c-0.552,1.598-1.181,3.174-1.953,4.68c-0.326,0.635-0.49,1.268-0.77,1.898
	c-0.332,0.748-1.013,1.348-1.47,2.018c0.9-0.625,1.44-2.062,2.012-2.986c0.497-0.803,0.963-1.549,1.373-2.42
	c0.939-1.998,1.588-4.072,2.203-6.197c0.289-1.004,0.328-2.059,0.662-3.051c0.223-0.65,0.656-1.201,0.909-1.83
	c0.354-0.879,0.527-1.836,0.821-2.734c0.35-1.072,0.792-2.129,1.18-3.188c0.256-0.701,0.477-1.439,0.687-2.148
	c0.522-1.777,1.222-3.488,1.777-5.26c0.61-1.945,1.291-3.877,1.922-5.814c0.386-1.188,0.653-2.404,1.057-3.582
	c0.367-1.07,0.926-2.025,1.293-3.08c0.367,0.059,0.833,0.219,1.208,0.359c0.601,0.223-1.846,8.178-2.071,8.979
	c-1.199,4.271-1.939,8.619-3.483,12.771c-1.63,4.387-3.323,8.732-4.903,13.137c-0.52,1.449-1.034,2.971-1.227,4.506
	c-0.078,0.615-0.304,1.633,0.003,2.215c0.672-0.713,0.846-2.449,1.116-3.395c0.713-2.496,1.632-4.93,2.501-7.361
	c0.671-1.881,1.298-3.773,2.064-5.584c1.315-3.109,2.522-6.182,3.332-9.475c0.5-2.039,0.691-4.152,1.239-6.229
	c0.471-1.777,0.899-3.562,1.514-5.305c0.483-1.367,0.966-2.607,1.095-4.072c0.832,0.607,2.354,0.24,3.293,0.225
	c1.097-0.021,2.027-0.064,3.063,0.258c1.083,0.334,1.901-0.076,2.845-0.68c-0.009,0.482-0.338,1.105-0.488,1.592
	c-0.249,0.809-0.511,1.592-0.811,2.375c-0.511,1.336-0.679,2.779-1.237,4.104c-1.115,2.639-3.014,4.867-4.191,7.514
	c-1.048,2.355-2.287,4.598-3.194,7.021c-0.766,2.045-1.696,4.029-2.842,5.881c-0.983,1.59-1.957,3.18-2.929,4.771
	c-0.711,1.158-1.616,2.158-2.385,3.27c0.652-0.455,1.155-1.299,1.682-1.9c0.648-0.746,1.368-1.473,1.967-2.236
	c0.748-0.963,1.257-2.115,1.933-3.125c0.552-0.824,1.062-1.725,1.576-2.572c1.071-1.77,1.906-3.977,2.662-5.906
	c0.729-1.859,1.632-3.676,2.488-5.459c1.419-2.957,3.453-5.48,4.727-8.518c0.562-1.34,0.861-2.52,1.138-3.912
	c0.194-0.975,0.378-2.49,1.073-3.254c0.319-0.354,0.8-0.459,1.079-0.859c-0.464,0.67-0.155,1.449-0.186,2.188
	c-0.062,1.52-0.255,3.123-0.677,4.576c-0.41,1.408-0.665,2.893-1.008,4.32c-0.185,0.771-0.374,1.535-0.624,2.287
	c-0.592,1.773-1.144,3.418-2.158,4.969c-1.143,1.748-1.801,4.023-2.633,5.945c-1.804,4.17-3.666,8.324-5.851,12.312
	c0.991-0.904,1.473-2.352,2.189-3.467c0.859-1.336,1.614-2.789,2.326-4.219c2.358-4.742,4.86-9.549,6.489-14.6
	c1.122-3.479,2.078-7.15,2.659-10.76c0.203-1.266-0.071-2.629,0.282-3.854c0.119-0.416,0.143-0.432,0.596-0.707
	c0.777-0.473,1.888-0.926,2.382-1.68c1.148,3.607,0.644,7.455-0.435,11.014c-1.042,3.439-2.245,6.791-3.981,9.945
	c-0.938,1.701-1.949,3.359-2.907,5.055c-0.905,1.598-1.63,3.207-2.345,4.881c-0.535,1.258-1.09,2.691-1.927,3.771
	c2.019-3.105,3.894-6.49,5.687-9.756c1.008-1.832,2.015-3.678,3.008-5.512c1.648-3.041,3.204-6.293,4.015-9.654
	c0.292-1.215,0.689-2.549,0.816-3.777c0.137-1.312-0.256-2.814-0.406-4.115c-0.154-1.342-0.572-2.557-0.318-3.93
	c0.216-1.164,0.795-2.271,1.096-3.422c0.673-2.584,0.347-5.152,0.527-7.785c0.23-3.398,1.137-6.703,1.737-10.045
	c1.601-8.929,4.387-17.539,8.735-25.518c2.216-4.062,4.636-7.65,6.266-12.073c1.634-4.431,2.875-8.996,4.537-13.416
	c2.067-5.495,4.231-10.953,6.354-16.426c1.52-3.918,3.303-7.737,4.688-11.709c1.044-2.993,1.324-6.161,1.743-9.283
	c0.353-2.626,1.292-5.215,0.994-7.812c-0.696-6.045-1.526-11.863-3.335-17.701c-0.803-2.596-2.175-5.662-2.331-8.374
	c-0.187-3.259,1.879-7.22,2.69-10.308c0.679-2.583,1.197-5.235,1.757-7.842c0.443-2.06,1.396-3.971,1.937-6.004
	c0.202-0.761,0.297-4.746,1.198-5.016c0.739-0.221,2.136,1.859,2.553,2.314C222.814,277.854,223.931,279.343,225.042,280.881z
	 M212.536,317.18c0.501,1.833,0.804,3.729,1.007,5.584c0.696,6.376-0.067,12.832-1.493,19.056c-0.651,2.844-1.561,5.611-1.921,8.457
	c-0.354,2.794-2.412,4.949-3.916,7.196c-2.784,4.156-6.772,7.279-10.44,10.613c-3.069,2.79-6.133,6.084-8.109,9.752
	c-3.272,6.075-5.66,12.683-8.208,19.081c-1.58,3.962-3.147,7.929-4.621,11.932c-0.744,2.021-1.463,4.05-2.149,6.091
	c-0.595,1.77-1.022,3.674-1.74,5.388c-0.427,1.02-1.153,1.887-1.784,2.784c-0.646,0.918-1.256,1.842-1.998,2.688
	c-0.328,0.375-0.955,0.814-1.128,1.244c0.847-0.688,1.639-1.514,2.445-2.234c0.746-0.668,1.291-1.607,1.997-2.336
	c0.115,1.199,0.147,2.451,0.147,3.656c0,1.447-0.361,2.861-0.337,4.311c-0.008-0.494,0.288-1.23,0.375-1.74
	c0.098-0.576,0.249-1.156,0.504-1.674c0.716,0.426,0.727,1.695,1.041,2.398c0.075-0.293-0.136-0.684-0.2-0.979
	c-0.159-0.727-0.286-1.479-0.466-2.197c-0.205-0.82-0.298-1.666-0.224-2.51c0.067-0.748-0.028-1.703,0.24-2.411
	c0.469-1.232,0.94-2.465,1.411-3.698c-0.117,0.305,0.826,1.473,0.972,1.721c0.156,0.265,0.963,1.244,0.946,1.496
	c0.06-0.893-0.926-1.841-1.201-2.687c-0.147-0.453-0.374-1.156-0.338-1.624c0.057-0.754,0.448-1.58,0.688-2.294
	c0.521-1.552,1.129-3.045,1.712-4.571c3.037-7.934,6.512-15.703,9.204-23.769c2.415-7.237,7.141-13.386,12.924-18.349
	c3.229-2.771,6.165-5.878,9.287-8.643c-1.423,4.813-3.315,9.385-4.876,14.131c-1.108,3.367-2.308,6.703-3.572,10.013
	c-2.925,7.667-7.165,14.423-10.591,21.832c-2.661,5.755-4.731,11.782-6.163,17.958c-1.176,5.08-3.431,9.514-8.162,12.162
	c-4.209,2.357-10.499,0.795-14.103-2.033c-5.37-4.209-1.755-7.445,2.019-10.52c2.807-2.29,4.649-5.178,6.387-8.18
	c3.61-6.24,3.58-12.532,4.882-19.431c2.008-10.639,4.326-21.665,5.759-32.402c1.665-12.468,4.51-25.575,10.62-36.664
	c3.583-6.498,9.439-11.292,14.943-16.096c2.12-1.852,3.446-1.211,5.108,0.932C210.917,312.554,211.89,314.813,212.536,317.18z
	 M329.596,128.032c-0.061,2.235-0.129,4.468-0.09,6.736c0.085,4.994,0.234,9.989,0.294,14.984c0.054,4.589-0.406,9.16-0.608,13.741
	c-0.177,3.925-0.859,7.66-0.622,11.639c0.146,2.468,0.012,4.969-0.323,7.416c-0.179,1.293-0.325,4.084-1.494,4.957
	c-1.97,1.469-7.185-7.474-8.486-9.04c-1.838-2.206-4.219-4.276-5.725-6.696c-1.418-2.28-1.217-5.724-1.641-8.308
	c-0.487-2.983-0.936-5.975-1.409-8.97c-1.044-6.583-1.998-13.181-3.166-19.744c-0.782-4.386-1.375-8.802-1.909-13.223
	c-0.747-6.149-0.267-12.63-0.11-18.813c0.231-9.328-0.779-18.698-1.345-28.008c-0.187-3.085-0.815-6.272-0.671-9.348
	c0.04-0.886,0.295-1.913,0.831-2.639c0.62-0.84,1.462-0.873,2.324-1.368c-0.464,0.196-0.913,0.423-1.248,0.783
	c0.253-0.273,2.544,0.356,3.055,0.253c0.646-0.13,1.569-0.571,2.062-1.005c1.742,1.844,4.834,1.294,7.094,1.707
	c1.598,0.291,3.104,0.813,4.711,0.534c1.287-0.227,2.511-0.978,3.781-1.175c1.083-0.166,2.173,0.624,3.219,0.214
	c1.062-0.418,2.796-1.979,4.007-0.953c-0.321-0.446-0.753-0.919-1.173-1.293c3.825,2.409,3.537,5.448,2.479,9.463
	c-0.667,2.542-1.536,5.206-1.69,7.858c-0.171,2.927-0.178,5.826-0.319,8.75c-0.366,7.618-1.039,15.144-1.438,22.762
	c-0.002,0.059-0.007,0.118-0.011,0.177c-0.209,3.782-0.497,7.654-0.353,11.449C329.711,123.289,329.656,125.662,329.596,128.032z
	 M179.538,444.593c-0.398,1.477-1.063,2.832-2.472,3.984c-0.749,0.615-1.634,1.178-2.502,1.605
	c-3.585,1.783-7.581,2.184-11.522,1.418c-1.591-0.309-2.688-1.139-4.061-1.848c-1.409-0.729-2.834-1.424-4.042-2.473
	c-2.001-1.734-3.115-4.104-3.863-6.6c-0.29-0.965-0.56-1.939-0.64-2.947c-0.082-1.016,0.178-1.658,0.286-2.643
	c0.543,0.57,0.802,1.543,1.312,2.199c0.729,0.938,1.59,1.766,2.394,2.631c1.739,1.873,3.667,3.49,6.139,4.24
	c2.958,0.896,6.226,1.648,9.323,1.207c0.885-0.129,1.739-0.312,2.626-0.447c0.574-0.09,2.126-0.99,0.886-1.119
	c-0.451-0.047-1.338,0.436-1.792,0.541c-0.798,0.189-1.604,0.344-2.423,0.402c-1.471,0.104-2.99-0.035-4.445-0.271
	c-2.355-0.379-4.702-1.008-6.589-2.477c-1.806-1.406-3.578-2.869-4.966-4.707c-0.787-1.041-1.731-2.26-1.901-3.596
	c-0.186-1.48,1.123-2.566,1.833-3.729c0.365-0.6,0.844-1.064,1.236-1.633c0.33-0.475,1.117-1.365,1.235-1.918
	c-0.357,1.691,0.297,3.352,1.058,4.834c0.445,0.865,0.973,1.836,1.686,2.506c1.72,1.617,3.344,2.93,5.669,3.619
	c1.455,0.434,2.98,0.633,4.498,0.584c2.639-0.084,5.266-0.811,7.504-2.227c2.33-1.479,3.647-3.564,5.387-5.609
	c0.15,0.791-0.279,1.867-0.425,2.656c-0.197,1.057-0.292,2.053-0.289,3.127c0.004,1.285,0.003,2.688-0.264,3.967
	C180.069,441.517,179.937,443.117,179.538,444.593z M447.202,371.87c0.011,0.163,0.021,0.324,0.032,0.485
	c0.133,2.064,0.249,4.059,0.525,6.115c0.591,4.384,0.997,8.805,1.331,13.207c0.659,8.612,1.502,17.218,2.331,25.797
	c0.298,3.096,1.721,6.422,1.067,9.471c-0.625,2.93-1.925,5.619-3.336,8.244c-0.449,0.836-0.99,1.59-1.196,2.52
	c-0.159,0.713-0.075,1.473-0.295,2.16c-1.066,3.344-5.133,5.506-8.403,3.945c-4.103-1.951-0.917-8.395-2.081-11.818
	c-0.634-1.867-1.584-3.529-2.269-5.365c-0.963-2.592-2.111-4.557-1.454-7.342c0.594-2.507,1.144-5.366,0.786-7.941
	c-0.327-2.342-0.549-4.732-0.892-7.096c-0.761-5.264-2.094-10.421-3.135-15.632c-0.638-3.2-1.117-6.445-1.688-9.645
	c-0.407-2.271-0.698-4.563-1.198-6.817c-0.385-1.738-0.322-3.434-0.683-5.172c-0.945-4.592-1.767-9.204-2.394-13.852
	c-0.171-1.255-2.769-17.072-0.732-17.058c0.537,0.003,0.78,0.786,0.992,1.168c0.789,1.411,1.423,2.977,2.082,4.43
	c0.825,1.814,1.806,3.549,2.488,5.441c1.107,3.056,2.099,6.354,2.731,9.536c0.443,2.239,1.519,4.422,1.646,6.706
	c0.1,1.762,0.679,3.288,1.022,5.01c0.379,1.908,0.556,3.849,0.784,5.779c0.388,3.221,0.485,6.495-0.26,9.674
	c-0.207,0.881-0.806,2.242-0.358,3.012c0.554-1.147,0.74-2.543,1.188-3.731c0.117-0.008,0.226-0.004,0.345-0.002
	c1.088,3.926,1.433,7.842,1.698,11.869c0.128,1.945,0.267,3.918,0.389,5.881c0.104,1.686,0.607,3.481,0.554,5.141
	c0.622-1.349-0.102-4.158-0.155-5.726c-0.064-1.679-0.021-3.35-0.135-5.012c-0.193-2.795-0.266-5.758-0.798-8.515
	c-0.654-3.366-1.132-6.762-1.564-10.162c-0.352-2.754-0.198-5.33-0.698-8.076c-1.236-6.789-2.153-13.684-4.588-20.181
	c-1.123-3.001-2.298-5.903-3.669-8.779c-2.333-4.9-4.923-10.388-4.276-15.858c0.811-6.854,1.105-13.468,2.682-20.253
	c0.208-0.894,0.732-4.313,1.466-4.85c4.69-3.434,14.815,14.693,15.577,18.015c1.396,6.08,3.309,11.661,3.702,17.971
	c0.63,10.021,0.615,19.184-3.292,28.473c-1.432,3.401-2.641,6.765-3.47,10.378c-1.262,5.504-0.255,10.896-0.197,16.442
	c0.022,2.405,0.075,4.813,0.188,7.218c0.104,2.271,0.521,4.249,0.893,6.453c1.057,6.308,0.963,12.723,1.053,19.083
	c0.042,3.121-0.279,7.529,1.011,10.154c-0.312-2.9-0.204-5.818-0.169-8.729c0.018-1.576-0.9-5.698,0.221-6.896
	c1.953,2.354,2.144,7.599,2.665,10.527c0.486,2.734,0.312,5.693,0.252,8.498c0.765-1.828,0.168-4.322,0.326-6.287
	c0.562,0.494,1.063,1.43,1.778,1.822c-0.021-1.285-1.294-2.609-1.572-3.977c-0.357-1.762-0.423-3.566-0.852-5.322
	c-0.366-1.505-0.625-2.926-1.382-4.263c-0.776-1.377-1.362-2.938-1.66-4.5c-0.332-1.742-0.158-3.645-0.221-5.411
	c-0.059-1.736-0.403-3.469-0.598-5.206c-0.422-3.82-0.552-7.673-0.321-11.514c0.229-3.78-0.572-7.342-0.931-11.013
	c-0.36-3.666,0.666-7.726,1.916-11.14c1.609-4.402,2.944-8.903,5.131-13.075C447.043,361.433,446.9,366.729,447.202,371.87z
	 M457.845,446.414c0.538,1.311,1.132,2.695,1.271,4.082c0.246,2.463-1.562,4.734-3.187,6.381
	c-4.137,4.189-11.605,6.857-17.426,5.365c-2.867-0.732-6.18-1.684-8.407-3.713c-2.394-2.178-4.974-4.182-6.469-7.145
	c-2.041-4.049,1.097-8.176,3.024-11.52c0.172-0.039,0.312-0.023,0.484-0.002c0.211,0.02,2.025,3.869,2.345,4.309
	c2.312,3.209,5.156,6.207,8.861,7.775c2.571,1.09,5.808,2.498,8.588,1.664c2.151-0.646,4.987-2.105,5.879-4.316
	c-1.662,0.875-2.844,2.193-4.752,2.801c-3.021,0.959-7.968,0.262-10.543-1.688c-1.363-1.031-2.995-1.781-4.26-2.971
	c-2.254-2.115-3.347-4.885-4.332-7.766c-0.746-2.182,1.271-4.969,2.01-6.988c0.214-0.58,1.967-6.777,1.99-6.777
	c0.613-0.014,0.787,0.982,1.053,1.496c0.522,1.01,1.414,1.881,1.307,3.113c-0.086,0.98-0.993,1.93-0.779,2.914
	c0.001,0.004,1.1-1.873,1.322-1.951c1.062,2.504,0.326,4.357,0.205,6.973c-0.098,2.066,0.502,4.656,2.312,5.912
	c1.49,1.033,3.411,0.578,5.178,0.688c-0.13,0.523-0.029,1.189-0.229,1.682c0.04,0.055,0.088,0.094,0.147,0.115
	c0.616-0.746,0.62-1.562,1.298-2.318c0.601-0.668,1.414-1.248,2.021-1.896c0.751-0.801,1.339-1.438,1.572-2.521
	c0.248-1.156,0.274-2.424,1.439-3.061c0.338,1.146,0.104,2.92,0.658,3.844c0.228-2.258-0.584-4.455,0.196-6.545
	c0.533-1.428,1.298-2.65,1.802-4.1c0.341-0.979,0.688-2.115,1.229-2.947c0.569,1.01,0.508,3.152,0.659,4.416
	c0.2,1.666,0.021,3.463,0.284,5.088c0.512,3.148,1.861,6.182,3.048,9.123C457.712,446.093,457.776,446.253,457.845,446.414z"/>
</svg>
