<?xml version="1.0" encoding="utf-8"?>
<!-- Generator: Adobe Illustrator 14.0.0, SVG Export Plug-In . SVG Version: 6.00 Build 43363)  -->
<!DOCTYPE svg PUBLIC "-//W3C//DTD SVG 1.1//EN" "http://www.w3.org/Graphics/SVG/1.1/DTD/svg11.dtd">
<svg version="1.1" id="Layer_1" xmlns="http://www.w3.org/2000/svg" xmlns:xlink="http://www.w3.org/1999/xlink" x="0px" y="0px"
	 width="595.275px" height="841.89px" viewBox="0 0 595.275 841.89" enable-background="new 0 0 595.275 841.89"
	 xml:space="preserve">
<path fill="#BF3734" d="M332.785,205.931c-1.896,0.741-3.769,1.695-5.476,2.669c-7.685,4.386-13.694,11.59-16.508,19.948
	c-0.396,1.175-2.684,7.85-1.511,8.819c-0.573-0.474-1.489-0.958-2.385-1.254c-0.086-2.219-0.062-4.584,0.711-6.663
	c-2.204,1.972-4.127,4.717-6.287,6.591c-0.312-0.134-1.394-0.968-1.654-1.264c2.048-3.094,6.447-4.919,7.063-8.75
	c-1.401,0.024-3.084-0.361-3.643-1.623c2.192-0.788,3.368,0.275,4.886-1.926c0.882-1.284,1.062-2.847,1.531-4.284
	c1.129-3.457,4.009-5.721,6.02-8.674c1.712-2.514,1.59-3.238-1.046-4.866c-2.138-1.32-5.188-2.66-7.765-2.375
	c-2.812,0.311-4.146,3.222-6.335,4.524c-1.312-2.195,0.575-2.896,1.994-4.47c-3.199,0.664-6.499,2.025-9.731,2.84
	c-2.516,0.635-3.085-0.884-2.929-3.367c2.851-0.193,5.349-0.615,8.158-1.297c2.02-0.49,4.061-0.84,6.083-1.406
	c-1.659-1.288-3.231-2.807-5.13-3.773c0.648-1.152,0.734-2.48,1.284-3.665c-0.254,0.548,13.461,7.091,14.997,7.688
	c5.106,1.99,11.66,3.864,16.824,1.042c3.974-2.17,8.021-4.118,12.116-6.046c2.527-1.191,5.404-2.755,8.174-3.229
	c0.861-0.147,7.33-1.594,7.283-1.712c0.414,1.062,0.848,2.109,1.276,3.167c-2.104-0.159-7.442,1.794-9.262,3.006
	c-2.32,1.546-1.855,2.269,0.639,3.809c2.539,1.567,5.263,2.827,7.983,4.039c2.465,1.096,4.576,2.594,7.194,3.419
	c0.688-0.436,1.536-0.656,2.146-1.173c0.461,1.554-1.335,2.204-1.472,3.619c-0.172,1.725,2.328,3.164,3.604,4.267
	c-0.239,0.47-0.763,0.795-1.178,1.124c-0.876-0.739-1.84-2.094-2.908-2.479c-0.097,1.141,0.562,2.633,0.907,3.714
	c0.339,1.06,1.503,2.996,1.34,4.016c-0.481-0.39-0.921-0.265-1.34-0.68c-0.801-0.793-1.204-3.006-1.599-4.032
	c-0.465-1.209-1.373-5.292-3.441-4.875c0.188,0.906,1.019,2.846,0.621,3.66c-2.224-0.867-2.226-3.965-3.995-5.441
	c-1.295-1.081-2.857-2.132-4.453-2.696c-2.443-0.863-2.921,0.918-3.543,3.039c-0.449,1.529-0.832,5.69-3.3,5.048
	c-1.776-0.461-1.644-1.605-1.562-3.219c0.062-1.199,1.944-7.758-0.426-7.844c-0.644-0.022-1.192,0.782-1.341,1.309
	c-0.934,3.348,0.462,6.875,0.271,10.248c-0.1,1.761-1.942,2.498-3.495,1.766c-1.313-0.62-1.956-2.135-2.102-3.493
	c-0.204-1.899,0.153-3.871-0.158-5.76C339.363,203.501,334.954,205.085,332.785,205.931"/>
<path fill="none" stroke="#FFBF00" stroke-width="0.32" d="M332.785,205.931c-1.896,0.741-3.769,1.695-5.476,2.669
	c-7.685,4.386-13.694,11.59-16.508,19.948c-0.396,1.175-2.684,7.85-1.511,8.819c-0.573-0.474-1.489-0.958-2.385-1.254
	c-0.086-2.219-0.062-4.584,0.711-6.663c-2.204,1.972-4.127,4.717-6.287,6.591c-0.312-0.134-1.394-0.968-1.654-1.264
	c2.048-3.094,6.447-4.919,7.063-8.75c-1.401,0.024-3.084-0.361-3.643-1.623c2.192-0.788,3.368,0.275,4.886-1.926
	c0.882-1.284,1.062-2.847,1.531-4.284c1.129-3.457,4.009-5.721,6.02-8.674c1.712-2.514,1.59-3.238-1.046-4.866
	c-2.138-1.32-5.188-2.66-7.765-2.375c-2.812,0.311-4.146,3.222-6.335,4.524c-1.312-2.195,0.575-2.896,1.994-4.47
	c-3.199,0.664-6.499,2.025-9.731,2.84c-2.516,0.635-3.085-0.884-2.929-3.367c2.851-0.193,5.349-0.615,8.158-1.297
	c2.02-0.49,4.061-0.84,6.083-1.406c-1.659-1.288-3.231-2.807-5.13-3.773c0.648-1.152,0.734-2.48,1.284-3.665
	c-0.254,0.548,13.461,7.091,14.997,7.688c5.106,1.99,11.66,3.864,16.824,1.042c3.974-2.17,8.021-4.118,12.116-6.046
	c2.527-1.191,5.404-2.755,8.174-3.229c0.861-0.147,7.33-1.594,7.283-1.712c0.414,1.062,0.848,2.109,1.276,3.167
	c-2.104-0.159-7.442,1.794-9.262,3.006c-2.32,1.546-1.855,2.269,0.639,3.809c2.539,1.567,5.263,2.827,7.983,4.039
	c2.465,1.096,4.576,2.594,7.194,3.419c0.688-0.436,1.536-0.656,2.146-1.173c0.461,1.554-1.335,2.204-1.472,3.619
	c-0.172,1.725,2.328,3.164,3.604,4.267c-0.239,0.47-0.763,0.795-1.178,1.124c-0.876-0.739-1.84-2.094-2.908-2.479
	c-0.097,1.141,0.562,2.633,0.907,3.714c0.339,1.06,1.503,2.996,1.34,4.016c-0.481-0.39-0.921-0.265-1.34-0.68
	c-0.801-0.793-1.204-3.006-1.599-4.032c-0.465-1.209-1.373-5.292-3.441-4.875c0.188,0.906,1.019,2.846,0.621,3.66
	c-2.224-0.867-2.226-3.965-3.995-5.441c-1.295-1.081-2.857-2.132-4.453-2.696c-2.443-0.863-2.921,0.918-3.543,3.039
	c-0.449,1.529-0.832,5.69-3.3,5.048c-1.776-0.461-1.644-1.605-1.562-3.219c0.062-1.199,1.944-7.758-0.426-7.844
	c-0.644-0.022-1.192,0.782-1.341,1.309c-0.934,3.348,0.462,6.875,0.271,10.248c-0.1,1.761-1.942,2.498-3.495,1.766
	c-1.313-0.62-1.956-2.135-2.102-3.493c-0.204-1.899,0.153-3.871-0.158-5.76C339.363,203.501,334.954,205.085,332.785,205.931z"/>
</svg>
