<?xml version="1.0" encoding="utf-8"?>
<!-- Generator: Adobe Illustrator 14.0.0, SVG Export Plug-In . SVG Version: 6.00 Build 43363)  -->
<!DOCTYPE svg PUBLIC "-//W3C//DTD SVG 1.1//EN" "http://www.w3.org/Graphics/SVG/1.1/DTD/svg11.dtd">
<svg version="1.1" id="Layer_1" xmlns="http://www.w3.org/2000/svg" xmlns:xlink="http://www.w3.org/1999/xlink" x="0px" y="0px"
	 width="595.275px" height="841.89px" viewBox="0 0 595.275 841.89" enable-background="new 0 0 595.275 841.89"
	 xml:space="preserve">
<path fill="#3D7DB7" d="M328.133,206.385c-2.064-0.406-3.32-1.722-5.229-0.451c-1.78,1.186-3.381,2.634-4.831,4.205
	c-2.936,3.176-5.253,6.854-7.636,10.445c-2.655,4.004-5.296,7.955-8.155,11.813c-0.616,0.831-1.049,1.585-1.787,2.295
	c-0.723,0.698-1.732,1.411-2.098,2.381c-1.131-0.487-1.876-0.2-1.039-1.479c0.867-1.322,1.876-2.651,2.789-3.927
	c-1.131-0.917-4.19,0.99-3.562-1.082c1.256,0.012,2.755-0.252,3.975-0.582c1.201-0.326,1.498-1.12,2.131-2.096
	c0.725-1.121,1.806-1.92,0.543-3.065c-0.893-0.808-2.442-0.986-3.573-1.146c-2.588-0.366-5.31-0.008-7.865-0.503
	c-0.354-1.763,1.605-1.022,2.761-1.574c-0.428-1.923-4-1.5-2.757-4.055c2.39,1.532,5.26,2.48,8.097,2.617
	c2.209,0.106,3.451-0.374,5.022-1.991c2.047-2.103,3.62-4.5,5.223-6.924c1.161-1.761,2.507-3.813,3.314-5.777
	c1.802-4.359-4.629-6.198-7.796-5.849c-2.814,0.31-4.146,3.222-6.337,4.525c-1.31-2.196,0.577-2.897,1.995-4.471
	c-3.202,0.664-6.499,2.025-9.73,2.84c-2.518,0.635-3.086-0.884-2.929-3.367c2.851-0.194,5.349-0.615,8.158-1.297
	c2.02-0.49,4.06-0.839,6.083-1.406c-1.659-1.288-3.232-2.807-5.129-3.773c0.648-1.153,0.734-2.481,1.286-3.666
	c-0.254,0.549,13.458,7.091,14.993,7.689c2.958,1.152,6.043,2.149,9.226,2.413c3.351,0.277,5.882-0.945,9.001-1.666
	c5.216-1.206,9.97-3.8,14.667-6.279c0.853-0.45,11.139-5.362,11.508-4.412c0.415,1.062,0.846,2.108,1.274,3.167
	c-2.103-0.159-7.44,1.794-9.26,3.006c-3.148,2.099-0.979,3.715,1.386,5.145c2.144,1.294,4.439,2.375,6.753,3.329
	c1.934,0.798,3.725,1.931,5.76,2.479c0.938,0.253,2.021,0.391,2.99,0.282c0.354-0.04,3.348-1.084,3.241-1.426
	c0.104,0.341,0.313,0.719,0.509,1.018c-1.14,0.624-4.543,1.817-4.113,3.262c0.453,1.533,3.313,3.175,4.784,3.312
	c-0.146,0.366-0.331,0.765-0.411,1.167c-1.939-0.192-3.512-2.727-5.44-2.884c-1.829-0.148-0.453,3.753-0.142,4.889
	c-1.671-0.196-1.723-3.482-2.385-4.815c-0.321-0.648-2.342-4.098-3.033-2.23c-0.169,0.454,0.286,2.028,0.371,2.536
	c0.194,1.141,0.471,2.36,0.826,3.461c0.521,1.588,1.262,3.267,2.188,4.663c-0.354-0.01-1.391,0.176-1.657-0.027
	c-0.573-0.438-0.293-1.658-0.966-2.134c-0.503,0.514-0.319,1.414-0.793,1.979c-0.971-1.004-0.216-1.991-0.159-3.193
	c0.044-0.942-0.243-1.93-0.467-2.885c-0.569-2.448-1.155-5.766-3.34-7.329c-1.781-1.274-4.089-1.495-6.13-2.123
	c-1.99-0.614-4.469-1.311-6.525-0.59c-3.913,1.374-1.423,7.317-0.394,9.965c1.125,2.893,1.172,3.134-1.826,3.384
	c-3.018,0.252-6.569,0.708-8.027-2.51c-1.019-2.252-1.459-4.698-4.269-5.098C328.842,206.516,328.488,206.456,328.133,206.385"/>
<path fill="none" stroke="#99C1E0" stroke-width="0.347" d="M328.133,206.385c-2.064-0.406-3.32-1.722-5.229-0.451
	c-1.78,1.186-3.381,2.634-4.831,4.205c-2.936,3.176-5.253,6.854-7.636,10.445c-2.655,4.004-5.296,7.955-8.155,11.813
	c-0.616,0.831-1.049,1.585-1.787,2.295c-0.723,0.698-1.732,1.411-2.098,2.381c-1.131-0.487-1.876-0.2-1.039-1.479
	c0.867-1.322,1.876-2.651,2.789-3.927c-1.131-0.917-4.19,0.99-3.562-1.082c1.256,0.012,2.755-0.252,3.975-0.582
	c1.201-0.326,1.498-1.12,2.131-2.096c0.725-1.121,1.806-1.92,0.543-3.065c-0.893-0.808-2.442-0.986-3.573-1.146
	c-2.588-0.366-5.31-0.008-7.865-0.503c-0.354-1.763,1.605-1.022,2.761-1.574c-0.428-1.923-4-1.5-2.757-4.055
	c2.39,1.532,5.26,2.48,8.097,2.617c2.209,0.106,3.451-0.374,5.022-1.991c2.047-2.103,3.62-4.5,5.223-6.924
	c1.161-1.761,2.507-3.813,3.314-5.777c1.802-4.359-4.629-6.198-7.796-5.849c-2.814,0.31-4.146,3.222-6.337,4.525
	c-1.31-2.196,0.577-2.897,1.995-4.471c-3.202,0.664-6.499,2.025-9.73,2.84c-2.518,0.635-3.086-0.884-2.929-3.367
	c2.851-0.194,5.349-0.615,8.158-1.297c2.02-0.49,4.06-0.839,6.083-1.406c-1.659-1.288-3.232-2.807-5.129-3.773
	c0.648-1.153,0.734-2.481,1.286-3.666c-0.254,0.549,13.458,7.091,14.993,7.689c2.958,1.152,6.043,2.149,9.226,2.413
	c3.351,0.277,5.882-0.945,9.001-1.666c5.216-1.206,9.97-3.8,14.667-6.279c0.853-0.45,11.139-5.362,11.508-4.412
	c0.415,1.062,0.846,2.108,1.274,3.167c-2.103-0.159-7.44,1.794-9.26,3.006c-3.148,2.099-0.979,3.715,1.386,5.145
	c2.144,1.294,4.439,2.375,6.753,3.329c1.934,0.798,3.725,1.931,5.76,2.479c0.938,0.253,2.021,0.391,2.99,0.282
	c0.354-0.04,3.348-1.084,3.241-1.426c0.104,0.341,0.313,0.719,0.509,1.018c-1.14,0.624-4.543,1.817-4.113,3.262
	c0.453,1.533,3.313,3.175,4.784,3.312c-0.146,0.366-0.331,0.765-0.411,1.167c-1.939-0.192-3.512-2.727-5.44-2.884
	c-1.829-0.148-0.453,3.753-0.142,4.889c-1.671-0.196-1.723-3.482-2.385-4.815c-0.321-0.648-2.342-4.098-3.033-2.23
	c-0.169,0.454,0.286,2.028,0.371,2.536c0.194,1.141,0.471,2.36,0.826,3.461c0.521,1.588,1.262,3.267,2.188,4.663
	c-0.354-0.01-1.391,0.176-1.657-0.027c-0.573-0.438-0.293-1.658-0.966-2.134c-0.503,0.514-0.319,1.414-0.793,1.979
	c-0.971-1.004-0.216-1.991-0.159-3.193c0.044-0.942-0.243-1.93-0.467-2.885c-0.569-2.448-1.155-5.766-3.34-7.329
	c-1.781-1.274-4.089-1.495-6.13-2.123c-1.99-0.614-4.469-1.311-6.525-0.59c-3.913,1.374-1.423,7.317-0.394,9.965
	c1.125,2.893,1.172,3.134-1.826,3.384c-3.018,0.252-6.569,0.708-8.027-2.51c-1.019-2.252-1.459-4.698-4.269-5.098
	C328.842,206.516,328.488,206.456,328.133,206.385z"/>
</svg>
