<?xml version="1.0" encoding="utf-8"?>
<!-- Generator: Adobe Illustrator 14.0.0, SVG Export Plug-In . SVG Version: 6.00 Build 43363)  -->
<!DOCTYPE svg PUBLIC "-//W3C//DTD SVG 1.1//EN" "http://www.w3.org/Graphics/SVG/1.1/DTD/svg11.dtd">
<svg version="1.1" id="Layer_1" xmlns="http://www.w3.org/2000/svg" xmlns:xlink="http://www.w3.org/1999/xlink" x="0px" y="0px"
	 width="595.275px" height="841.89px" viewBox="0 0 595.275 841.89" enable-background="new 0 0 595.275 841.89"
	 xml:space="preserve">
<path fill="#ED5D40" d="M357.395,214.812c-2.646-3.05-6.138-7.847-10.553-8.137c-1.53-0.1-3.363,0.666-4.315,1.871
	c2.714,1.652-4.843,5.748-6.275,4.082c1.855,2.163-2.439,3.265-3.823,3.567c-1.447,0.317-2.215,0.128-3.587-0.18
	c-1.733-0.391-3.451,0.485-4.983,1.179c-6.43,2.912-7.637,10.117-5.79,16.435c1.497,5.132,3.859,10.467,7.753,14.243
	c2.067,2.009,4.275,2.552,6.684,3.871c2.48,1.358,4.274,2.92,7.157,3.681c4.021,1.06,7.828-0.449,11.841-0.435
	c1.721,0.005,3.318,0.613,5.08,0.688c2.136,0.093,4.279-0.057,6.406,0.173c5.291,0.575,10.852-5.71,10.705-10.759
	c-0.068-2.307-1.234-4.621-1.977-6.778c-1.482-4.324-3.636-8.563-6.132-12.375C363.125,222.186,360.369,218.237,357.395,214.812"/>
</svg>
